<mxfile host="app.diagrams.net" modified="2024-05-27T13:11:09.907Z" agent="Mozilla/5.0 (Windows NT 10.0; Win64; x64) AppleWebKit/537.36 (KHTML, like Gecko) Chrome/125.0.0.0 Safari/537.36" etag="YEfZd71En1V-Oi3aRcqD" version="24.4.8" type="github">
  <diagram name="Страница — 1" id="XZ1N1F0dY1YBsSVOuD9h">
    <mxGraphModel dx="700" dy="371" grid="1" gridSize="15" guides="1" tooltips="1" connect="1" arrows="1" fold="1" page="1" pageScale="1" pageWidth="827" pageHeight="1169" math="0" shadow="0">
      <root>
        <mxCell id="0" />
        <mxCell id="1" parent="0" />
        <mxCell id="iWqXNTxpSWPwR4oz_0rX-2" value="&lt;span style=&quot;font-size: 4px;&quot;&gt;&amp;nbsp;работники жд вокзала&lt;/span&gt;" style="rounded=0;whiteSpace=wrap;html=1;" vertex="1" parent="1">
          <mxGeometry x="75.69" y="40" width="50" height="20" as="geometry" />
        </mxCell>
        <mxCell id="iWqXNTxpSWPwR4oz_0rX-3" value="фамилия" style="ellipse;whiteSpace=wrap;html=1;" vertex="1" parent="1">
          <mxGeometry x="85.69" y="80" width="60" height="20" as="geometry" />
        </mxCell>
        <mxCell id="iWqXNTxpSWPwR4oz_0rX-5" value="имя" style="ellipse;whiteSpace=wrap;html=1;" vertex="1" parent="1">
          <mxGeometry x="85.69" y="110" width="60" height="20" as="geometry" />
        </mxCell>
        <mxCell id="iWqXNTxpSWPwR4oz_0rX-6" value="отчество" style="ellipse;whiteSpace=wrap;html=1;" vertex="1" parent="1">
          <mxGeometry x="85.69" y="140" width="60" height="20" as="geometry" />
        </mxCell>
        <mxCell id="iWqXNTxpSWPwR4oz_0rX-7" value="&lt;font style=&quot;font-size: 7px;&quot;&gt;год рождения&lt;/font&gt;" style="ellipse;whiteSpace=wrap;html=1;" vertex="1" parent="1">
          <mxGeometry x="85.69" y="170" width="60" height="20" as="geometry" />
        </mxCell>
        <mxCell id="iWqXNTxpSWPwR4oz_0rX-8" value="&lt;div style=&quot;&quot;&gt;&lt;span style=&quot;background-color: initial;&quot;&gt;&lt;font style=&quot;font-size: 4px;&quot;&gt;&lt;b&gt;Год поступления на работу&lt;/b&gt;&lt;/font&gt;&lt;/span&gt;&lt;/div&gt;" style="ellipse;whiteSpace=wrap;html=1;align=center;" vertex="1" parent="1">
          <mxGeometry x="85.69" y="200" width="60" height="20" as="geometry" />
        </mxCell>
        <mxCell id="iWqXNTxpSWPwR4oz_0rX-9" value="телефон" style="ellipse;whiteSpace=wrap;html=1;" vertex="1" parent="1">
          <mxGeometry x="85.69" y="410" width="60" height="20" as="geometry" />
        </mxCell>
        <mxCell id="iWqXNTxpSWPwR4oz_0rX-10" value="город" style="ellipse;whiteSpace=wrap;html=1;" vertex="1" parent="1">
          <mxGeometry x="85.69" y="370" width="60" height="20" as="geometry" />
        </mxCell>
        <mxCell id="iWqXNTxpSWPwR4oz_0rX-11" value="адрес" style="ellipse;whiteSpace=wrap;html=1;" vertex="1" parent="1">
          <mxGeometry x="85.69" y="330" width="60" height="20" as="geometry" />
        </mxCell>
        <mxCell id="iWqXNTxpSWPwR4oz_0rX-12" value="пол" style="ellipse;whiteSpace=wrap;html=1;" vertex="1" parent="1">
          <mxGeometry x="85.69" y="290" width="60" height="20" as="geometry" />
        </mxCell>
        <mxCell id="iWqXNTxpSWPwR4oz_0rX-13" value="должность" style="ellipse;whiteSpace=wrap;html=1;" vertex="1" parent="1">
          <mxGeometry x="85.69" y="260" width="60" height="20" as="geometry" />
        </mxCell>
        <mxCell id="iWqXNTxpSWPwR4oz_0rX-14" value="стаж" style="ellipse;whiteSpace=wrap;html=1;" vertex="1" parent="1">
          <mxGeometry x="85.69" y="230" width="60" height="20" as="geometry" />
        </mxCell>
        <mxCell id="iWqXNTxpSWPwR4oz_0rX-17" style="edgeStyle=orthogonalEdgeStyle;rounded=0;orthogonalLoop=1;jettySize=auto;html=1;entryX=0.011;entryY=0.707;entryDx=0;entryDy=0;entryPerimeter=0;" edge="1" parent="1">
          <mxGeometry relative="1" as="geometry">
            <mxPoint x="75.03" y="50" as="sourcePoint" />
            <mxPoint x="85.68999999999997" y="94.13999999999999" as="targetPoint" />
            <Array as="points">
              <mxPoint x="45.03" y="50" />
              <mxPoint x="45.03" y="94" />
            </Array>
          </mxGeometry>
        </mxCell>
        <mxCell id="iWqXNTxpSWPwR4oz_0rX-21" value="" style="endArrow=none;html=1;rounded=0;" edge="1" parent="1">
          <mxGeometry width="50" height="50" relative="1" as="geometry">
            <mxPoint x="45.69" y="430" as="sourcePoint" />
            <mxPoint x="45.69" y="95" as="targetPoint" />
          </mxGeometry>
        </mxCell>
        <mxCell id="iWqXNTxpSWPwR4oz_0rX-22" value="" style="endArrow=classic;html=1;rounded=0;entryX=0;entryY=0.5;entryDx=0;entryDy=0;" edge="1" parent="1" target="iWqXNTxpSWPwR4oz_0rX-5">
          <mxGeometry width="50" height="50" relative="1" as="geometry">
            <mxPoint x="45.69" y="120" as="sourcePoint" />
            <mxPoint x="85.69" y="110" as="targetPoint" />
          </mxGeometry>
        </mxCell>
        <mxCell id="iWqXNTxpSWPwR4oz_0rX-24" value="" style="endArrow=classic;html=1;rounded=0;entryX=0;entryY=0.5;entryDx=0;entryDy=0;" edge="1" parent="1" target="iWqXNTxpSWPwR4oz_0rX-6">
          <mxGeometry width="50" height="50" relative="1" as="geometry">
            <mxPoint x="45.69" y="150" as="sourcePoint" />
            <mxPoint x="95.69" y="110" as="targetPoint" />
          </mxGeometry>
        </mxCell>
        <mxCell id="iWqXNTxpSWPwR4oz_0rX-25" value="" style="endArrow=classic;html=1;rounded=0;entryX=0;entryY=0.5;entryDx=0;entryDy=0;" edge="1" parent="1">
          <mxGeometry width="50" height="50" relative="1" as="geometry">
            <mxPoint x="45.69" y="179.68" as="sourcePoint" />
            <mxPoint x="85.69" y="179.68" as="targetPoint" />
          </mxGeometry>
        </mxCell>
        <mxCell id="iWqXNTxpSWPwR4oz_0rX-26" value="" style="endArrow=classic;html=1;rounded=0;entryX=0;entryY=0.5;entryDx=0;entryDy=0;" edge="1" parent="1">
          <mxGeometry width="50" height="50" relative="1" as="geometry">
            <mxPoint x="45.69" y="379.68" as="sourcePoint" />
            <mxPoint x="85.69" y="379.68" as="targetPoint" />
          </mxGeometry>
        </mxCell>
        <mxCell id="iWqXNTxpSWPwR4oz_0rX-28" value="" style="endArrow=classic;html=1;rounded=0;entryX=0;entryY=0.5;entryDx=0;entryDy=0;" edge="1" parent="1">
          <mxGeometry width="50" height="50" relative="1" as="geometry">
            <mxPoint x="45.69" y="339.68" as="sourcePoint" />
            <mxPoint x="85.69" y="339.68" as="targetPoint" />
          </mxGeometry>
        </mxCell>
        <mxCell id="iWqXNTxpSWPwR4oz_0rX-29" value="" style="endArrow=classic;html=1;rounded=0;entryX=0;entryY=0.5;entryDx=0;entryDy=0;" edge="1" parent="1">
          <mxGeometry width="50" height="50" relative="1" as="geometry">
            <mxPoint x="45.69" y="299.68" as="sourcePoint" />
            <mxPoint x="85.69" y="299.68" as="targetPoint" />
          </mxGeometry>
        </mxCell>
        <mxCell id="iWqXNTxpSWPwR4oz_0rX-30" value="" style="endArrow=classic;html=1;rounded=0;entryX=0;entryY=0.5;entryDx=0;entryDy=0;" edge="1" parent="1">
          <mxGeometry width="50" height="50" relative="1" as="geometry">
            <mxPoint x="45.69" y="269.68" as="sourcePoint" />
            <mxPoint x="85.69" y="269.68" as="targetPoint" />
          </mxGeometry>
        </mxCell>
        <mxCell id="iWqXNTxpSWPwR4oz_0rX-31" value="" style="endArrow=classic;html=1;rounded=0;entryX=0;entryY=0.5;entryDx=0;entryDy=0;" edge="1" parent="1">
          <mxGeometry width="50" height="50" relative="1" as="geometry">
            <mxPoint x="45.69" y="239.68" as="sourcePoint" />
            <mxPoint x="85.69" y="239.68" as="targetPoint" />
          </mxGeometry>
        </mxCell>
        <mxCell id="iWqXNTxpSWPwR4oz_0rX-32" value="" style="endArrow=classic;html=1;rounded=0;entryX=0;entryY=0.5;entryDx=0;entryDy=0;" edge="1" parent="1">
          <mxGeometry width="50" height="50" relative="1" as="geometry">
            <mxPoint x="45.69" y="209.68" as="sourcePoint" />
            <mxPoint x="85.69" y="209.68" as="targetPoint" />
          </mxGeometry>
        </mxCell>
        <mxCell id="iWqXNTxpSWPwR4oz_0rX-34" value="" style="endArrow=classic;html=1;rounded=0;entryX=0;entryY=0.5;entryDx=0;entryDy=0;" edge="1" parent="1">
          <mxGeometry width="50" height="50" relative="1" as="geometry">
            <mxPoint x="45.69" y="419.68" as="sourcePoint" />
            <mxPoint x="85.69" y="419.68" as="targetPoint" />
          </mxGeometry>
        </mxCell>
        <mxCell id="iWqXNTxpSWPwR4oz_0rX-35" value="&lt;p style=&quot;&quot; class=&quot;MsoNormal&quot;&gt;&lt;span style=&quot;font-family: &amp;quot;Times New Roman&amp;quot;;&quot;&gt;&lt;font style=&quot;font-size: 10px;&quot;&gt;расписание движения поездов&lt;/font&gt;&lt;/span&gt;&lt;/p&gt;" style="rounded=0;whiteSpace=wrap;html=1;strokeWidth=1;fontSize=12;spacing=2;align=center;" vertex="1" parent="1">
          <mxGeometry x="342.5" y="430" width="90" height="30" as="geometry" />
        </mxCell>
        <mxCell id="iWqXNTxpSWPwR4oz_0rX-36" value="поезд" style="ellipse;whiteSpace=wrap;html=1;strokeWidth=1;fontSize=12;spacing=2;" vertex="1" parent="1">
          <mxGeometry x="352.5" y="470" width="120" height="50" as="geometry" />
        </mxCell>
        <mxCell id="iWqXNTxpSWPwR4oz_0rX-37" value="дата отправления" style="ellipse;whiteSpace=wrap;html=1;strokeWidth=1;fontSize=12;spacing=2;" vertex="1" parent="1">
          <mxGeometry x="352.5" y="530" width="120" height="50" as="geometry" />
        </mxCell>
        <mxCell id="iWqXNTxpSWPwR4oz_0rX-38" value="время отправления" style="ellipse;whiteSpace=wrap;html=1;strokeWidth=1;fontSize=12;spacing=2;" vertex="1" parent="1">
          <mxGeometry x="352.5" y="590" width="120" height="50" as="geometry" />
        </mxCell>
        <mxCell id="iWqXNTxpSWPwR4oz_0rX-39" value="стоимость билета" style="ellipse;whiteSpace=wrap;html=1;strokeWidth=1;fontSize=12;spacing=2;" vertex="1" parent="1">
          <mxGeometry x="352.5" y="1000" width="120" height="50" as="geometry" />
        </mxCell>
        <mxCell id="iWqXNTxpSWPwR4oz_0rX-40" value="маршрут" style="ellipse;whiteSpace=wrap;html=1;strokeWidth=1;fontSize=12;spacing=2;" vertex="1" parent="1">
          <mxGeometry x="352.5" y="925" width="120" height="50" as="geometry" />
        </mxCell>
        <mxCell id="iWqXNTxpSWPwR4oz_0rX-41" value="место прибытия" style="ellipse;whiteSpace=wrap;html=1;strokeWidth=1;fontSize=12;spacing=2;" vertex="1" parent="1">
          <mxGeometry x="352.5" y="860" width="120" height="50" as="geometry" />
        </mxCell>
        <mxCell id="iWqXNTxpSWPwR4oz_0rX-42" value="время прибытия" style="ellipse;whiteSpace=wrap;html=1;strokeWidth=1;fontSize=12;spacing=2;" vertex="1" parent="1">
          <mxGeometry x="352.5" y="790" width="120" height="50" as="geometry" />
        </mxCell>
        <mxCell id="iWqXNTxpSWPwR4oz_0rX-43" value="дата прибытия" style="ellipse;whiteSpace=wrap;html=1;strokeWidth=1;fontSize=12;spacing=2;" vertex="1" parent="1">
          <mxGeometry x="352.5" y="720" width="120" height="50" as="geometry" />
        </mxCell>
        <mxCell id="iWqXNTxpSWPwR4oz_0rX-44" value="место отправления" style="ellipse;whiteSpace=wrap;html=1;strokeWidth=1;fontSize=12;spacing=2;" vertex="1" parent="1">
          <mxGeometry x="352.5" y="650" width="120" height="50" as="geometry" />
        </mxCell>
        <mxCell id="iWqXNTxpSWPwR4oz_0rX-45" style="edgeStyle=orthogonalEdgeStyle;rounded=0;orthogonalLoop=1;jettySize=auto;html=1;entryX=0;entryY=0.6;entryDx=0;entryDy=0;entryPerimeter=0;strokeWidth=1;fontSize=12;spacing=2;" edge="1" parent="1" source="iWqXNTxpSWPwR4oz_0rX-35" target="iWqXNTxpSWPwR4oz_0rX-36">
          <mxGeometry relative="1" as="geometry">
            <Array as="points">
              <mxPoint x="282.5" y="445" />
              <mxPoint x="282.5" y="500" />
            </Array>
          </mxGeometry>
        </mxCell>
        <mxCell id="iWqXNTxpSWPwR4oz_0rX-46" value="" style="endArrow=none;html=1;rounded=0;strokeWidth=1;fontSize=12;spacing=2;" edge="1" parent="1">
          <mxGeometry width="50" height="50" relative="1" as="geometry">
            <mxPoint x="282.5" y="1030" as="sourcePoint" />
            <mxPoint x="282.5" y="500" as="targetPoint" />
          </mxGeometry>
        </mxCell>
        <mxCell id="iWqXNTxpSWPwR4oz_0rX-47" value="" style="endArrow=classic;html=1;rounded=0;entryX=0;entryY=0.5;entryDx=0;entryDy=0;strokeWidth=1;fontSize=12;spacing=2;" edge="1" parent="1" target="iWqXNTxpSWPwR4oz_0rX-37">
          <mxGeometry width="50" height="50" relative="1" as="geometry">
            <mxPoint x="282.5" y="555" as="sourcePoint" />
            <mxPoint x="332.5" y="520" as="targetPoint" />
          </mxGeometry>
        </mxCell>
        <mxCell id="iWqXNTxpSWPwR4oz_0rX-48" value="" style="endArrow=classic;html=1;rounded=0;entryX=0;entryY=0.5;entryDx=0;entryDy=0;strokeWidth=1;fontSize=12;spacing=2;" edge="1" parent="1">
          <mxGeometry width="50" height="50" relative="1" as="geometry">
            <mxPoint x="282.5" y="614.6800000000001" as="sourcePoint" />
            <mxPoint x="352.5" y="614.6800000000001" as="targetPoint" />
          </mxGeometry>
        </mxCell>
        <mxCell id="iWqXNTxpSWPwR4oz_0rX-50" value="" style="endArrow=classic;html=1;rounded=0;entryX=0;entryY=0.5;entryDx=0;entryDy=0;strokeWidth=1;fontSize=12;spacing=2;" edge="1" parent="1">
          <mxGeometry width="50" height="50" relative="1" as="geometry">
            <mxPoint x="282.5" y="1024.68" as="sourcePoint" />
            <mxPoint x="352.5" y="1024.68" as="targetPoint" />
          </mxGeometry>
        </mxCell>
        <mxCell id="iWqXNTxpSWPwR4oz_0rX-51" value="" style="endArrow=classic;html=1;rounded=0;entryX=0;entryY=0.5;entryDx=0;entryDy=0;strokeWidth=1;fontSize=12;spacing=2;" edge="1" parent="1">
          <mxGeometry width="50" height="50" relative="1" as="geometry">
            <mxPoint x="282.5" y="949.6800000000001" as="sourcePoint" />
            <mxPoint x="352.5" y="949.6800000000001" as="targetPoint" />
          </mxGeometry>
        </mxCell>
        <mxCell id="iWqXNTxpSWPwR4oz_0rX-52" value="" style="endArrow=classic;html=1;rounded=0;entryX=0;entryY=0.5;entryDx=0;entryDy=0;strokeWidth=1;fontSize=12;spacing=2;" edge="1" parent="1">
          <mxGeometry width="50" height="50" relative="1" as="geometry">
            <mxPoint x="282.5" y="884.6800000000001" as="sourcePoint" />
            <mxPoint x="352.5" y="884.6800000000001" as="targetPoint" />
          </mxGeometry>
        </mxCell>
        <mxCell id="iWqXNTxpSWPwR4oz_0rX-53" value="" style="endArrow=classic;html=1;rounded=0;entryX=0;entryY=0.5;entryDx=0;entryDy=0;strokeWidth=1;fontSize=12;spacing=2;" edge="1" parent="1">
          <mxGeometry width="50" height="50" relative="1" as="geometry">
            <mxPoint x="282.5" y="814.6800000000001" as="sourcePoint" />
            <mxPoint x="352.5" y="814.6800000000001" as="targetPoint" />
          </mxGeometry>
        </mxCell>
        <mxCell id="iWqXNTxpSWPwR4oz_0rX-54" value="" style="endArrow=classic;html=1;rounded=0;entryX=0;entryY=0.5;entryDx=0;entryDy=0;strokeWidth=1;fontSize=12;spacing=2;" edge="1" parent="1">
          <mxGeometry width="50" height="50" relative="1" as="geometry">
            <mxPoint x="282.5" y="744.6800000000001" as="sourcePoint" />
            <mxPoint x="352.5" y="744.6800000000001" as="targetPoint" />
          </mxGeometry>
        </mxCell>
        <mxCell id="iWqXNTxpSWPwR4oz_0rX-55" value="" style="endArrow=classic;html=1;rounded=0;entryX=0;entryY=0.5;entryDx=0;entryDy=0;strokeWidth=1;fontSize=12;spacing=2;" edge="1" parent="1">
          <mxGeometry width="50" height="50" relative="1" as="geometry">
            <mxPoint x="282.5" y="674.6800000000001" as="sourcePoint" />
            <mxPoint x="352.5" y="674.6800000000001" as="targetPoint" />
          </mxGeometry>
        </mxCell>
        <mxCell id="iWqXNTxpSWPwR4oz_0rX-63" style="edgeStyle=orthogonalEdgeStyle;rounded=0;orthogonalLoop=1;jettySize=auto;html=1;entryX=0;entryY=0.5;entryDx=0;entryDy=0;" edge="1" parent="1" source="iWqXNTxpSWPwR4oz_0rX-56" target="iWqXNTxpSWPwR4oz_0rX-57">
          <mxGeometry relative="1" as="geometry">
            <Array as="points">
              <mxPoint x="525" y="237" />
              <mxPoint x="525" y="290" />
            </Array>
          </mxGeometry>
        </mxCell>
        <mxCell id="iWqXNTxpSWPwR4oz_0rX-56" value="Таблица поезда" style="rounded=0;whiteSpace=wrap;html=1;" vertex="1" parent="1">
          <mxGeometry x="570" y="220" width="90" height="35" as="geometry" />
        </mxCell>
        <mxCell id="iWqXNTxpSWPwR4oz_0rX-57" value="Номер" style="ellipse;whiteSpace=wrap;html=1;" vertex="1" parent="1">
          <mxGeometry x="585" y="275" width="105" height="30" as="geometry" />
        </mxCell>
        <mxCell id="iWqXNTxpSWPwR4oz_0rX-58" value="Год выпуска" style="ellipse;whiteSpace=wrap;html=1;" vertex="1" parent="1">
          <mxGeometry x="585" y="320" width="105" height="30" as="geometry" />
        </mxCell>
        <mxCell id="iWqXNTxpSWPwR4oz_0rX-68" value="" style="edgeStyle=orthogonalEdgeStyle;rounded=0;orthogonalLoop=1;jettySize=auto;html=1;" edge="1" parent="1" source="iWqXNTxpSWPwR4oz_0rX-59" target="iWqXNTxpSWPwR4oz_0rX-60">
          <mxGeometry relative="1" as="geometry" />
        </mxCell>
        <mxCell id="iWqXNTxpSWPwR4oz_0rX-59" value="кол-во вагонов" style="ellipse;whiteSpace=wrap;html=1;" vertex="1" parent="1">
          <mxGeometry x="585" y="370" width="105" height="30" as="geometry" />
        </mxCell>
        <mxCell id="iWqXNTxpSWPwR4oz_0rX-60" value="тип поезда" style="ellipse;whiteSpace=wrap;html=1;" vertex="1" parent="1">
          <mxGeometry x="585" y="415" width="105" height="30" as="geometry" />
        </mxCell>
        <mxCell id="iWqXNTxpSWPwR4oz_0rX-64" value="" style="endArrow=none;html=1;rounded=0;" edge="1" parent="1">
          <mxGeometry width="50" height="50" relative="1" as="geometry">
            <mxPoint x="525" y="435" as="sourcePoint" />
            <mxPoint x="525" y="290" as="targetPoint" />
          </mxGeometry>
        </mxCell>
        <mxCell id="iWqXNTxpSWPwR4oz_0rX-65" value="" style="endArrow=classic;html=1;rounded=0;entryX=0;entryY=0.5;entryDx=0;entryDy=0;" edge="1" parent="1" target="iWqXNTxpSWPwR4oz_0rX-58">
          <mxGeometry width="50" height="50" relative="1" as="geometry">
            <mxPoint x="525" y="335" as="sourcePoint" />
            <mxPoint x="575" y="300" as="targetPoint" />
          </mxGeometry>
        </mxCell>
        <mxCell id="iWqXNTxpSWPwR4oz_0rX-66" value="" style="endArrow=classic;html=1;rounded=0;entryX=0;entryY=0.5;entryDx=0;entryDy=0;" edge="1" parent="1">
          <mxGeometry width="50" height="50" relative="1" as="geometry">
            <mxPoint x="525" y="385" as="sourcePoint" />
            <mxPoint x="585" y="385" as="targetPoint" />
          </mxGeometry>
        </mxCell>
        <mxCell id="iWqXNTxpSWPwR4oz_0rX-67" value="" style="endArrow=classic;html=1;rounded=0;entryX=0;entryY=0.5;entryDx=0;entryDy=0;" edge="1" parent="1">
          <mxGeometry width="50" height="50" relative="1" as="geometry">
            <mxPoint x="525" y="430" as="sourcePoint" />
            <mxPoint x="585" y="430" as="targetPoint" />
          </mxGeometry>
        </mxCell>
        <mxCell id="iWqXNTxpSWPwR4oz_0rX-70" style="edgeStyle=orthogonalEdgeStyle;rounded=0;orthogonalLoop=1;jettySize=auto;html=1;entryX=0;entryY=0.5;entryDx=0;entryDy=0;" edge="1" parent="1" source="iWqXNTxpSWPwR4oz_0rX-71" target="iWqXNTxpSWPwR4oz_0rX-72">
          <mxGeometry relative="1" as="geometry">
            <Array as="points">
              <mxPoint x="307.5" y="97" />
              <mxPoint x="307.5" y="150" />
            </Array>
          </mxGeometry>
        </mxCell>
        <mxCell id="iWqXNTxpSWPwR4oz_0rX-71" value="&lt;font style=&quot;font-size: 10px;&quot;&gt;Таблица бригады поездов&lt;/font&gt;" style="rounded=0;whiteSpace=wrap;html=1;" vertex="1" parent="1">
          <mxGeometry x="352.5" y="80" width="90" height="35" as="geometry" />
        </mxCell>
        <mxCell id="iWqXNTxpSWPwR4oz_0rX-72" value="Номер бригады" style="ellipse;whiteSpace=wrap;html=1;" vertex="1" parent="1">
          <mxGeometry x="367.5" y="135" width="105" height="30" as="geometry" />
        </mxCell>
        <mxCell id="iWqXNTxpSWPwR4oz_0rX-73" value="поезд" style="ellipse;whiteSpace=wrap;html=1;" vertex="1" parent="1">
          <mxGeometry x="367.5" y="180" width="105" height="30" as="geometry" />
        </mxCell>
        <mxCell id="iWqXNTxpSWPwR4oz_0rX-75" value="работник вокзала" style="ellipse;whiteSpace=wrap;html=1;" vertex="1" parent="1">
          <mxGeometry x="367.5" y="230" width="105" height="30" as="geometry" />
        </mxCell>
        <mxCell id="iWqXNTxpSWPwR4oz_0rX-77" value="" style="endArrow=none;html=1;rounded=0;" edge="1" parent="1">
          <mxGeometry width="50" height="50" relative="1" as="geometry">
            <mxPoint x="308" y="240" as="sourcePoint" />
            <mxPoint x="307.5" y="150" as="targetPoint" />
          </mxGeometry>
        </mxCell>
        <mxCell id="iWqXNTxpSWPwR4oz_0rX-78" value="" style="endArrow=classic;html=1;rounded=0;entryX=0;entryY=0.5;entryDx=0;entryDy=0;" edge="1" parent="1" target="iWqXNTxpSWPwR4oz_0rX-73">
          <mxGeometry width="50" height="50" relative="1" as="geometry">
            <mxPoint x="307.5" y="195" as="sourcePoint" />
            <mxPoint x="357.5" y="160" as="targetPoint" />
          </mxGeometry>
        </mxCell>
        <mxCell id="iWqXNTxpSWPwR4oz_0rX-79" value="" style="endArrow=classic;html=1;rounded=0;entryX=0;entryY=0.5;entryDx=0;entryDy=0;" edge="1" parent="1">
          <mxGeometry width="50" height="50" relative="1" as="geometry">
            <mxPoint x="307.5" y="245" as="sourcePoint" />
            <mxPoint x="367.5" y="245" as="targetPoint" />
          </mxGeometry>
        </mxCell>
        <mxCell id="iWqXNTxpSWPwR4oz_0rX-81" value="&lt;p class=&quot;MsoNormal&quot; align=&quot;center&quot; style=&quot;text-align: center; font-size: 7px;&quot;&gt;&lt;span style=&quot;font-family: &amp;quot;Times New Roman&amp;quot;; font-size: 7px;&quot;&gt;&lt;font face=&quot;Times New Roman&quot; style=&quot;font-size: 7px;&quot;&gt;ведомость продаж билетов&lt;/font&gt;&lt;/span&gt;&lt;span style=&quot;font-family: &amp;quot;Times New Roman&amp;quot;; font-size: 7px;&quot;&gt;&lt;/span&gt;&lt;/p&gt;" style="rounded=0;whiteSpace=wrap;html=1;fontSize=7;" vertex="1" parent="1">
          <mxGeometry x="660.6899999999999" y="650" width="50" height="20" as="geometry" />
        </mxCell>
        <mxCell id="iWqXNTxpSWPwR4oz_0rX-82" value="&lt;p class=&quot;MsoNormal&quot;&gt;&lt;span style=&quot;font-family: &amp;quot;Times New Roman&amp;quot;;&quot;&gt;&lt;font style=&quot;font-size: 6px;&quot;&gt;Дата и время продажи&lt;/font&gt;&lt;/span&gt;&lt;/p&gt;" style="ellipse;whiteSpace=wrap;html=1;" vertex="1" parent="1">
          <mxGeometry x="670.6899999999999" y="690" width="60" height="20" as="geometry" />
        </mxCell>
        <mxCell id="iWqXNTxpSWPwR4oz_0rX-83" value="&lt;font style=&quot;font-size: 8px;&quot;&gt;фио пассажира&lt;/font&gt;" style="ellipse;whiteSpace=wrap;html=1;" vertex="1" parent="1">
          <mxGeometry x="670.6899999999999" y="720" width="60" height="20" as="geometry" />
        </mxCell>
        <mxCell id="iWqXNTxpSWPwR4oz_0rX-84" value="&lt;font style=&quot;font-size: 9px;&quot;&gt;пасп.данные&lt;/font&gt;" style="ellipse;whiteSpace=wrap;html=1;" vertex="1" parent="1">
          <mxGeometry x="670.6899999999999" y="750" width="60" height="20" as="geometry" />
        </mxCell>
        <mxCell id="iWqXNTxpSWPwR4oz_0rX-85" value="&lt;span style=&quot;font-size: 7px;&quot;&gt;номер рейс&lt;/span&gt;" style="ellipse;whiteSpace=wrap;html=1;" vertex="1" parent="1">
          <mxGeometry x="670.6899999999999" y="780" width="60" height="20" as="geometry" />
        </mxCell>
        <mxCell id="iWqXNTxpSWPwR4oz_0rX-86" value="&lt;div style=&quot;&quot;&gt;&lt;b style=&quot;&quot;&gt;&lt;font style=&quot;font-size: 6px;&quot;&gt;кол-во билетов&lt;/font&gt;&lt;/b&gt;&lt;/div&gt;" style="ellipse;whiteSpace=wrap;html=1;align=center;" vertex="1" parent="1">
          <mxGeometry x="670.6899999999999" y="810" width="60" height="20" as="geometry" />
        </mxCell>
        <mxCell id="iWqXNTxpSWPwR4oz_0rX-87" value="стоимость" style="ellipse;whiteSpace=wrap;html=1;" vertex="1" parent="1">
          <mxGeometry x="670.6899999999999" y="870" width="60" height="20" as="geometry" />
        </mxCell>
        <mxCell id="iWqXNTxpSWPwR4oz_0rX-88" value="&lt;font style=&quot;font-size: 8px;&quot;&gt;наличие льгот&lt;/font&gt;" style="ellipse;whiteSpace=wrap;html=1;" vertex="1" parent="1">
          <mxGeometry x="670.6899999999999" y="840" width="60" height="20" as="geometry" />
        </mxCell>
        <mxCell id="iWqXNTxpSWPwR4oz_0rX-89" style="edgeStyle=orthogonalEdgeStyle;rounded=0;orthogonalLoop=1;jettySize=auto;html=1;entryX=0.011;entryY=0.707;entryDx=0;entryDy=0;entryPerimeter=0;" edge="1" parent="1">
          <mxGeometry relative="1" as="geometry">
            <mxPoint x="660.03" y="660" as="sourcePoint" />
            <mxPoint x="670.6899999999999" y="704.14" as="targetPoint" />
            <Array as="points">
              <mxPoint x="630.03" y="660" />
              <mxPoint x="630.03" y="704" />
            </Array>
          </mxGeometry>
        </mxCell>
        <mxCell id="iWqXNTxpSWPwR4oz_0rX-90" value="" style="endArrow=classic;html=1;rounded=0;entryX=0;entryY=0.5;entryDx=0;entryDy=0;" edge="1" parent="1" target="iWqXNTxpSWPwR4oz_0rX-83">
          <mxGeometry width="50" height="50" relative="1" as="geometry">
            <mxPoint x="630.6899999999999" y="730" as="sourcePoint" />
            <mxPoint x="670.6899999999999" y="720" as="targetPoint" />
          </mxGeometry>
        </mxCell>
        <mxCell id="iWqXNTxpSWPwR4oz_0rX-91" value="" style="endArrow=classic;html=1;rounded=0;entryX=0;entryY=0.5;entryDx=0;entryDy=0;" edge="1" parent="1" target="iWqXNTxpSWPwR4oz_0rX-84">
          <mxGeometry width="50" height="50" relative="1" as="geometry">
            <mxPoint x="630.6899999999999" y="760" as="sourcePoint" />
            <mxPoint x="680.6899999999999" y="720" as="targetPoint" />
          </mxGeometry>
        </mxCell>
        <mxCell id="iWqXNTxpSWPwR4oz_0rX-92" value="" style="endArrow=classic;html=1;rounded=0;entryX=0;entryY=0.5;entryDx=0;entryDy=0;" edge="1" parent="1">
          <mxGeometry width="50" height="50" relative="1" as="geometry">
            <mxPoint x="630.6899999999999" y="789.6800000000001" as="sourcePoint" />
            <mxPoint x="670.6899999999999" y="789.6800000000001" as="targetPoint" />
          </mxGeometry>
        </mxCell>
        <mxCell id="iWqXNTxpSWPwR4oz_0rX-93" value="" style="endArrow=classic;html=1;rounded=0;entryX=0;entryY=0.5;entryDx=0;entryDy=0;" edge="1" parent="1">
          <mxGeometry width="50" height="50" relative="1" as="geometry">
            <mxPoint x="630.6899999999999" y="879.6800000000001" as="sourcePoint" />
            <mxPoint x="670.6899999999999" y="879.6800000000001" as="targetPoint" />
          </mxGeometry>
        </mxCell>
        <mxCell id="iWqXNTxpSWPwR4oz_0rX-94" value="" style="endArrow=classic;html=1;rounded=0;entryX=0;entryY=0.5;entryDx=0;entryDy=0;" edge="1" parent="1">
          <mxGeometry width="50" height="50" relative="1" as="geometry">
            <mxPoint x="630.6899999999999" y="849.6800000000001" as="sourcePoint" />
            <mxPoint x="670.6899999999999" y="849.6800000000001" as="targetPoint" />
          </mxGeometry>
        </mxCell>
        <mxCell id="iWqXNTxpSWPwR4oz_0rX-95" value="" style="endArrow=classic;html=1;rounded=0;entryX=0;entryY=0.5;entryDx=0;entryDy=0;" edge="1" parent="1">
          <mxGeometry width="50" height="50" relative="1" as="geometry">
            <mxPoint x="630.6899999999999" y="819.6800000000001" as="sourcePoint" />
            <mxPoint x="670.6899999999999" y="819.6800000000001" as="targetPoint" />
          </mxGeometry>
        </mxCell>
        <mxCell id="iWqXNTxpSWPwR4oz_0rX-96" value="" style="endArrow=none;html=1;rounded=0;" edge="1" parent="1">
          <mxGeometry width="50" height="50" relative="1" as="geometry">
            <mxPoint x="630.05" y="890" as="sourcePoint" />
            <mxPoint x="630.05" y="695" as="targetPoint" />
          </mxGeometry>
        </mxCell>
        <mxCell id="iWqXNTxpSWPwR4oz_0rX-97" value="" style="endArrow=none;html=1;rounded=0;entryX=0;entryY=0.5;entryDx=0;entryDy=0;" edge="1" parent="1" target="iWqXNTxpSWPwR4oz_0rX-98">
          <mxGeometry width="50" height="50" relative="1" as="geometry">
            <mxPoint x="125.69" y="60" as="sourcePoint" />
            <mxPoint x="195" y="90" as="targetPoint" />
          </mxGeometry>
        </mxCell>
        <mxCell id="iWqXNTxpSWPwR4oz_0rX-98" value="&lt;font style=&quot;font-size: 10px;&quot;&gt;кто в бригаде&lt;/font&gt;" style="rhombus;whiteSpace=wrap;html=1;" vertex="1" parent="1">
          <mxGeometry x="180" y="40" width="80" height="80" as="geometry" />
        </mxCell>
        <mxCell id="iWqXNTxpSWPwR4oz_0rX-99" value="" style="endArrow=none;html=1;rounded=0;entryX=0;entryY=0.25;entryDx=0;entryDy=0;exitX=1;exitY=0.5;exitDx=0;exitDy=0;" edge="1" parent="1" source="iWqXNTxpSWPwR4oz_0rX-98" target="iWqXNTxpSWPwR4oz_0rX-71">
          <mxGeometry width="50" height="50" relative="1" as="geometry">
            <mxPoint x="245" y="100" as="sourcePoint" />
            <mxPoint x="295" y="50" as="targetPoint" />
          </mxGeometry>
        </mxCell>
      </root>
    </mxGraphModel>
  </diagram>
</mxfile>
